<svg width="16" height="16" viewBox="0 0 16 16" fill="none" xmlns="http://www.w3.org/2000/svg">
<path d="M8 9.10449C9.22558 9.10449 10.5895 9.47347 11.6289 10.0654C12.7141 10.6835 13.1999 11.3884 13.2002 11.9561V13C13.2002 13.6627 12.6627 14.2002 12 14.2002H4C3.33726 14.2002 2.7998 13.6627 2.7998 13V11.9561C2.80007 11.3884 3.28587 10.6835 4.37109 10.0654C5.41048 9.47347 6.77442 9.10449 8 9.10449ZM8 1.7998C9.17425 1.7998 10.2002 2.80237 10.2002 4.04395C10.1999 5.2853 9.1741 6.28711 8 6.28711C6.8259 6.28711 5.80006 5.2853 5.7998 4.04395C5.7998 2.80237 6.82575 1.7998 8 1.7998Z" stroke="#ADBFDF" stroke-width="1.6"/>
</svg>
